<?xml version="1.0" encoding="UTF-8"?>
<svg version="1.1" xmlns="http://www.w3.org/2000/svg" width="861" height="861">
<path d="M0 0 C2.11711452 -0.00115332 4.23422884 -0.00274226 6.35134274 -0.00472724 C12.14814536 -0.00889162 17.94493147 -0.00684294 23.74173415 -0.00374103 C30.0015452 -0.00147535 36.26135345 -0.00497237 42.52116394 -0.00772095 C54.06843892 -0.01190852 65.61570656 -0.01154861 77.16298149 -0.00880948 C87.83220696 -0.00629115 98.5014305 -0.00563851 109.1706562 -0.00683212 C109.87914061 -0.00690851 110.58762501 -0.00698489 111.31757863 -0.00706359 C114.1937607 -0.00737495 117.06994277 -0.00769335 119.94612483 -0.00802336 C146.91266177 -0.01108055 173.87919538 -0.00831181 200.8457318 -0.00292646 C224.78721675 0.00181843 248.72869637 0.00139474 272.67018127 -0.00338745 C299.58677107 -0.00874597 326.50335791 -0.0108632 353.41994816 -0.00777519 C356.29111516 -0.00745448 359.16228217 -0.00714164 362.03344917 -0.00683212 C362.74037087 -0.00675305 363.44729256 -0.00667397 364.17563612 -0.00659249 C374.83567308 -0.00545658 385.49570789 -0.00678241 396.15574455 -0.00931168 C408.28140031 -0.01217439 420.40704841 -0.01135277 432.53270393 -0.00603093 C438.71754027 -0.00340579 444.90236582 -0.00236876 451.08720207 -0.00568008 C456.75278921 -0.00866749 462.4183556 -0.00700955 468.08394087 -0.00170253 C470.12956017 -0.00058877 472.17518123 -0.00114636 474.22079938 -0.00357832 C484.58941899 -0.01495618 494.84299003 0.076786 505.16896057 1.12698364 C505.49896057 2.44698364 505.82896057 3.76698364 506.16896057 5.12698364 C509.79896057 5.12698364 513.42896057 5.12698364 517.16896057 5.12698364 C517.16896057 6.44698364 517.16896057 7.76698364 517.16896057 9.12698364 C520.79896057 9.12698364 524.42896057 9.12698364 528.16896057 9.12698364 C528.16896057 10.11698364 528.16896057 11.10698364 528.16896057 12.12698364 C531.46896057 12.12698364 534.76896057 12.12698364 538.16896057 12.12698364 C538.49896057 13.11698364 538.82896057 14.10698364 539.16896057 15.12698364 C542.68086867 16.35668242 542.68086867 16.35668242 546.16896057 17.12698364 C546.16896057 17.78698364 546.16896057 18.44698364 546.16896057 19.12698364 C548.14896057 19.12698364 550.12896057 19.12698364 552.16896057 19.12698364 C552.49896057 20.44698364 552.82896057 21.76698364 553.16896057 23.12698364 C555.14896057 23.12698364 557.12896057 23.12698364 559.16896057 23.12698364 C559.49896057 24.44698364 559.82896057 25.76698364 560.16896057 27.12698364 C562.47896057 27.12698364 564.78896057 27.12698364 567.16896057 27.12698364 C567.16896057 28.11698364 567.16896057 29.10698364 567.16896057 30.12698364 C568.48896057 30.45698364 569.80896057 30.78698364 571.16896057 31.12698364 C571.16896057 32.11698364 571.16896057 33.10698364 571.16896057 34.12698364 C573.47896057 34.12698364 575.78896057 34.12698364 578.16896057 34.12698364 C578.16896057 35.11698364 578.16896057 36.10698364 578.16896057 37.12698364 C579.48896057 37.45698364 580.80896057 37.78698364 582.16896057 38.12698364 C582.16896057 39.11698364 582.16896057 40.10698364 582.16896057 41.12698364 C583.15896057 41.12698364 584.14896057 41.12698364 585.16896057 41.12698364 C585.16896057 42.44698364 585.16896057 43.76698364 585.16896057 45.12698364 C587.47896057 45.12698364 589.78896057 45.12698364 592.16896057 45.12698364 C592.16896057 46.11698364 592.16896057 47.10698364 592.16896057 48.12698364 C593.48896057 48.45698364 594.80896057 48.78698364 596.16896057 49.12698364 C596.16896057 50.11698364 596.16896057 51.10698364 596.16896057 52.12698364 C597.48896057 52.12698364 598.80896057 52.12698364 600.16896057 52.12698364 C600.16896057 53.11698364 600.16896057 54.10698364 600.16896057 55.12698364 C601.15896057 55.45698364 602.14896057 55.78698364 603.16896057 56.12698364 C603.16896057 57.11698364 603.16896057 58.10698364 603.16896057 59.12698364 C604.48896057 59.12698364 605.80896057 59.12698364 607.16896057 59.12698364 C607.16896057 60.44698364 607.16896057 61.76698364 607.16896057 63.12698364 C608.48896057 63.45698364 609.80896057 63.78698364 611.16896057 64.12698364 C611.16896057 64.78698364 611.16896057 65.44698364 611.16896057 66.12698364 C612.15896057 66.12698364 613.14896057 66.12698364 614.16896057 66.12698364 C614.16896057 67.44698364 614.16896057 68.76698364 614.16896057 70.12698364 C615.48896057 70.45698364 616.80896057 70.78698364 618.16896057 71.12698364 C618.16896057 72.11698364 618.16896057 73.10698364 618.16896057 74.12698364 C619.15896057 74.12698364 620.14896057 74.12698364 621.16896057 74.12698364 C621.16896057 76.43698364 621.16896057 78.74698364 621.16896057 81.12698364 C622.48896057 81.12698364 623.80896057 81.12698364 625.16896057 81.12698364 C625.16896057 82.11698364 625.16896057 83.10698364 625.16896057 84.12698364 C626.48896057 84.45698364 627.80896057 84.78698364 629.16896057 85.12698364 C629.16896057 86.11698364 629.16896057 87.10698364 629.16896057 88.12698364 C630.15896057 88.12698364 631.14896057 88.12698364 632.16896057 88.12698364 C632.16896057 90.43698364 632.16896057 92.74698364 632.16896057 95.12698364 C633.48896057 95.45698364 634.80896057 95.78698364 636.16896057 96.12698364 C636.16896057 97.11698364 636.16896057 98.10698364 636.16896057 99.12698364 C637.15896057 99.12698364 638.14896057 99.12698364 639.16896057 99.12698364 C639.16896057 101.43698364 639.16896057 103.74698364 639.16896057 106.12698364 C640.48896057 106.45698364 641.80896057 106.78698364 643.16896057 107.12698364 C643.16896057 109.10698364 643.16896057 111.08698364 643.16896057 113.12698364 C644.48896057 113.45698364 645.80896057 113.78698364 647.16896057 114.12698364 C647.16896057 116.10698364 647.16896057 118.08698364 647.16896057 120.12698364 C648.15896057 120.45698364 649.14896057 120.78698364 650.16896057 121.12698364 C650.49896057 123.10698364 650.82896057 125.08698364 651.16896057 127.12698364 C652.15896057 127.45698364 653.14896057 127.78698364 654.16896057 128.12698364 C654.16896057 131.42698364 654.16896057 134.72698364 654.16896057 138.12698364 C655.15896057 138.12698364 656.14896057 138.12698364 657.16896057 138.12698364 C657.16896057 141.75698364 657.16896057 145.38698364 657.16896057 149.12698364 C658.48896057 149.12698364 659.80896057 149.12698364 661.16896057 149.12698364 C661.16896057 152.75698364 661.16896057 156.38698364 661.16896057 160.12698364 C662.48896057 160.45698364 663.80896057 160.78698364 665.16896057 161.12698364 C666.3206233 172.45060024 666.30946069 183.7157821 666.29594421 195.08500671 C666.29709776 197.20369698 666.29868686 199.32238705 666.30067146 201.4410767 C666.30483261 207.23755059 666.30278864 213.03400795 666.29968524 218.83048189 C666.29741827 225.09161958 666.30091721 231.35275447 666.30366516 237.6138916 C666.30785135 249.16152942 666.30749356 260.7091599 666.30475369 272.25679769 C666.30223492 282.92536403 666.30158293 293.59392846 666.30277634 304.26249504 C666.30289091 305.32533622 666.30289091 305.32533622 666.30300781 306.40964894 C666.30331916 309.28615093 666.30363756 312.16265292 666.30396757 315.0391549 C666.30702423 342.00399288 666.30425676 368.96882751 666.29887067 395.93366497 C666.29412482 419.87530358 666.2945504 443.81693688 666.29933167 467.75857544 C666.30468941 494.67662781 666.30680794 521.59467723 666.3037194 548.51273006 C666.3033987 551.38358271 666.30308586 554.25443536 666.30277634 557.12528801 C666.30269726 557.83213063 666.30261818 558.53897324 666.30253671 559.26723533 C666.30140057 569.92817868 666.30272701 580.58911989 666.30525589 591.25006294 C666.30811767 603.37462511 666.30729884 615.49917964 666.30197515 627.62374157 C666.29934894 633.80846096 666.29831481 639.99316956 666.3016243 646.17788887 C666.30460943 651.84215017 666.3029575 657.5063907 666.29764675 663.17065012 C666.29653204 665.21689467 666.29709272 667.26314099 666.29952253 669.30938441 C666.32966203 696.80558072 666.32966203 696.80558072 664.16896057 701.12698364 C663.17896057 701.12698364 662.18896057 701.12698364 661.16896057 701.12698364 C661.16896057 705.74698364 661.16896057 710.36698364 661.16896057 715.12698364 C659.84896057 715.12698364 658.52896057 715.12698364 657.16896057 715.12698364 C657.16896057 718.75698364 657.16896057 722.38698364 657.16896057 726.12698364 C656.17896057 726.12698364 655.18896057 726.12698364 654.16896057 726.12698364 C654.16896057 728.43698364 654.16896057 730.74698364 654.16896057 733.12698364 C653.17896057 733.45698364 652.18896057 733.78698364 651.16896057 734.12698364 C649.93926179 737.63889174 649.93926179 737.63889174 649.16896057 741.12698364 C648.50896057 741.12698364 647.84896057 741.12698364 647.16896057 741.12698364 C647.16896057 743.10698364 647.16896057 745.08698364 647.16896057 747.12698364 C645.84896057 747.45698364 644.52896057 747.78698364 643.16896057 748.12698364 C643.16896057 750.10698364 643.16896057 752.08698364 643.16896057 754.12698364 C641.84896057 754.45698364 640.52896057 754.78698364 639.16896057 755.12698364 C639.16896057 757.43698364 639.16896057 759.74698364 639.16896057 762.12698364 C638.17896057 762.12698364 637.18896057 762.12698364 636.16896057 762.12698364 C635.83896057 763.44698364 635.50896057 764.76698364 635.16896057 766.12698364 C634.17896057 766.12698364 633.18896057 766.12698364 632.16896057 766.12698364 C632.16896057 768.43698364 632.16896057 770.74698364 632.16896057 773.12698364 C631.17896057 773.12698364 630.18896057 773.12698364 629.16896057 773.12698364 C628.83896057 774.44698364 628.50896057 775.76698364 628.16896057 777.12698364 C627.17896057 777.12698364 626.18896057 777.12698364 625.16896057 777.12698364 C625.16896057 778.11698364 625.16896057 779.10698364 625.16896057 780.12698364 C623.84896057 780.12698364 622.52896057 780.12698364 621.16896057 780.12698364 C621.29271057 781.73573364 621.29271057 781.73573364 621.41896057 783.37698364 C621.16896057 787.12698364 621.16896057 787.12698364 619.35646057 789.56448364 C617.16896057 791.12698364 617.16896057 791.12698364 614.16896057 791.12698364 C613.83896057 792.44698364 613.50896057 793.76698364 613.16896057 795.12698364 C612.50896057 795.12698364 611.84896057 795.12698364 611.16896057 795.12698364 C610.83896057 796.11698364 610.50896057 797.10698364 610.16896057 798.12698364 C609.17896057 798.12698364 608.18896057 798.12698364 607.16896057 798.12698364 C607.16896057 799.44698364 607.16896057 800.76698364 607.16896057 802.12698364 C605.84896057 802.12698364 604.52896057 802.12698364 603.16896057 802.12698364 C602.83896057 803.44698364 602.50896057 804.76698364 602.16896057 806.12698364 C601.50896057 806.12698364 600.84896057 806.12698364 600.16896057 806.12698364 C599.83896057 807.11698364 599.50896057 808.10698364 599.16896057 809.12698364 C598.17896057 809.12698364 597.18896057 809.12698364 596.16896057 809.12698364 C596.06583557 809.72510864 595.96271057 810.32323364 595.85646057 810.93948364 C595.0240622 813.5880239 594.48941872 814.58001154 592.16896057 816.12698364 C588.48146057 816.31448364 588.48146057 816.31448364 585.16896057 816.12698364 C585.16896057 817.44698364 585.16896057 818.76698364 585.16896057 820.12698364 C584.17896057 820.12698364 583.18896057 820.12698364 582.16896057 820.12698364 C581.83896057 821.44698364 581.50896057 822.76698364 581.16896057 824.12698364 C580.17896057 824.12698364 579.18896057 824.12698364 578.16896057 824.12698364 C578.16896057 825.11698364 578.16896057 826.10698364 578.16896057 827.12698364 C575.85896057 827.12698364 573.54896057 827.12698364 571.16896057 827.12698364 C570.83896057 828.44698364 570.50896057 829.76698364 570.16896057 831.12698364 C569.17896057 831.12698364 568.18896057 831.12698364 567.16896057 831.12698364 C567.16896057 832.11698364 567.16896057 833.10698364 567.16896057 834.12698364 C564.85896057 834.12698364 562.54896057 834.12698364 560.16896057 834.12698364 C559.83896057 835.44698364 559.50896057 836.76698364 559.16896057 838.12698364 C557.18896057 838.12698364 555.20896057 838.12698364 553.16896057 838.12698364 C552.83896057 839.44698364 552.50896057 840.76698364 552.16896057 842.12698364 C550.18896057 842.12698364 548.20896057 842.12698364 546.16896057 842.12698364 C545.83896057 843.11698364 545.50896057 844.10698364 545.16896057 845.12698364 C542.85896057 845.12698364 540.54896057 845.12698364 538.16896057 845.12698364 C537.83896057 846.44698364 537.50896057 847.76698364 537.16896057 849.12698364 C534.19896057 849.12698364 531.22896057 849.12698364 528.16896057 849.12698364 C528.16896057 850.11698364 528.16896057 851.10698364 528.16896057 852.12698364 C524.53896057 852.12698364 520.90896057 852.12698364 517.16896057 852.12698364 C517.16896057 853.44698364 517.16896057 854.76698364 517.16896057 856.12698364 C513.53896057 856.12698364 509.90896057 856.12698364 506.16896057 856.12698364 C505.83896057 857.44698364 505.50896057 858.76698364 505.16896057 860.12698364 C492.4007646 861.04787446 479.70012256 861.26941716 466.90196228 861.25396729 C464.79845707 861.2551218 462.69495206 861.25671154 460.59144747 861.25869453 C454.85540905 861.26284238 449.1193874 861.26081784 443.38334894 861.25770831 C437.18016608 861.25543584 430.97698601 861.25894297 424.77380371 861.26168823 C413.33973072 861.26586909 401.90566515 861.26551934 390.4715922 861.26277676 C379.9075555 861.26025548 369.34352074 861.25960717 358.7794838 861.26079941 C357.7260262 861.26091399 357.7260262 861.26091399 356.65128663 861.26103088 C353.80001141 861.26134224 350.94873619 861.26166065 348.09746097 861.26199064 C321.38398524 861.26504545 294.67051288 861.26228272 267.95703767 861.25689374 C244.24968204 861.25214757 220.54233178 861.25257413 196.8349762 861.25735474 C170.16553878 861.26271475 143.49610435 861.26482979 116.82666647 861.26174247 C113.98137959 861.26142178 111.1360927 861.26110894 108.29080582 861.26079941 C107.59028407 861.26072033 106.88976233 861.26064125 106.16801266 861.26055978 C95.61201652 861.25942463 85.05602254 861.26074822 74.5000267 861.26327896 C62.4931262 861.2661433 50.48623342 861.26531666 38.47933315 861.25999822 C32.35699748 861.25737544 26.23467269 861.25633202 20.11233711 861.25964737 C14.50174063 861.2626396 8.89116506 861.26096897 3.28057046 861.25566982 C1.25727216 861.2545581 -0.76602793 861.25510897 -2.78932507 861.25754561 C-34.08302823 861.29232444 -34.08302823 861.29232444 -38.83103943 858.12698364 C-38.83103943 857.46698364 -38.83103943 856.80698364 -38.83103943 856.12698364 C-42.13103943 856.12698364 -45.43103943 856.12698364 -48.83103943 856.12698364 C-48.83103943 854.80698364 -48.83103943 853.48698364 -48.83103943 852.12698364 C-52.46103943 852.12698364 -56.09103943 852.12698364 -59.83103943 852.12698364 C-59.83103943 851.13698364 -59.83103943 850.14698364 -59.83103943 849.12698364 C-61.81103943 849.12698364 -63.79103943 849.12698364 -65.83103943 849.12698364 C-66.16103943 847.80698364 -66.49103943 846.48698364 -66.83103943 845.12698364 C-70.46103943 845.12698364 -74.09103943 845.12698364 -77.83103943 845.12698364 C-77.83103943 844.13698364 -77.83103943 843.14698364 -77.83103943 842.12698364 C-80.14103943 841.79698364 -82.45103943 841.46698364 -84.83103943 841.12698364 C-84.83103943 840.13698364 -84.83103943 839.14698364 -84.83103943 838.12698364 C-86.15103943 837.79698364 -87.47103943 837.46698364 -88.83103943 837.12698364 C-88.83103943 836.13698364 -88.83103943 835.14698364 -88.83103943 834.12698364 C-91.14103943 834.12698364 -93.45103943 834.12698364 -95.83103943 834.12698364 C-95.83103943 833.13698364 -95.83103943 832.14698364 -95.83103943 831.12698364 C-97.81103943 831.12698364 -99.79103943 831.12698364 -101.83103943 831.12698364 C-102.16103943 829.80698364 -102.49103943 828.48698364 -102.83103943 827.12698364 C-104.15103943 827.12698364 -105.47103943 827.12698364 -106.83103943 827.12698364 C-106.83103943 826.13698364 -106.83103943 825.14698364 -106.83103943 824.12698364 C-108.15103943 823.79698364 -109.47103943 823.46698364 -110.83103943 823.12698364 C-110.83103943 822.13698364 -110.83103943 821.14698364 -110.83103943 820.12698364 C-112.81103943 820.12698364 -114.79103943 820.12698364 -116.83103943 820.12698364 C-117.16103943 818.80698364 -117.49103943 817.48698364 -117.83103943 816.12698364 C-118.82103943 816.12698364 -119.81103943 816.12698364 -120.83103943 816.12698364 C-120.83103943 815.13698364 -120.83103943 814.14698364 -120.83103943 813.12698364 C-122.15103943 812.79698364 -123.47103943 812.46698364 -124.83103943 812.12698364 C-124.83103943 811.13698364 -124.83103943 810.14698364 -124.83103943 809.12698364 C-126.15103943 809.12698364 -127.47103943 809.12698364 -128.83103943 809.12698364 C-128.83103943 808.13698364 -128.83103943 807.14698364 -128.83103943 806.12698364 C-129.82103943 805.79698364 -130.81103943 805.46698364 -131.83103943 805.12698364 C-131.83103943 804.13698364 -131.83103943 803.14698364 -131.83103943 802.12698364 C-133.15103943 802.12698364 -134.47103943 802.12698364 -135.83103943 802.12698364 C-135.83103943 800.80698364 -135.83103943 799.48698364 -135.83103943 798.12698364 C-137.15103943 797.79698364 -138.47103943 797.46698364 -139.83103943 797.12698364 C-139.83103943 796.46698364 -139.83103943 795.80698364 -139.83103943 795.12698364 C-140.82103943 795.12698364 -141.81103943 795.12698364 -142.83103943 795.12698364 C-142.83103943 793.80698364 -142.83103943 792.48698364 -142.83103943 791.12698364 C-144.15103943 790.79698364 -145.47103943 790.46698364 -146.83103943 790.12698364 C-146.83103943 789.13698364 -146.83103943 788.14698364 -146.83103943 787.12698364 C-147.82103943 787.12698364 -148.81103943 787.12698364 -149.83103943 787.12698364 C-149.83103943 786.13698364 -149.83103943 785.14698364 -149.83103943 784.12698364 C-151.15103943 783.79698364 -152.47103943 783.46698364 -153.83103943 783.12698364 C-153.83103943 781.14698364 -153.83103943 779.16698364 -153.83103943 777.12698364 C-155.15103943 776.79698364 -156.47103943 776.46698364 -157.83103943 776.12698364 C-157.83103943 775.13698364 -157.83103943 774.14698364 -157.83103943 773.12698364 C-158.82103943 773.12698364 -159.81103943 773.12698364 -160.83103943 773.12698364 C-160.83103943 771.80698364 -160.83103943 770.48698364 -160.83103943 769.12698364 C-162.15103943 768.79698364 -163.47103943 768.46698364 -164.83103943 768.12698364 C-164.83103943 766.14698364 -164.83103943 764.16698364 -164.83103943 762.12698364 C-165.82103943 762.12698364 -166.81103943 762.12698364 -167.83103943 762.12698364 C-167.83103943 759.81698364 -167.83103943 757.50698364 -167.83103943 755.12698364 C-169.15103943 754.79698364 -170.47103943 754.46698364 -171.83103943 754.12698364 C-171.83103943 753.13698364 -171.83103943 752.14698364 -171.83103943 751.12698364 C-172.82103943 751.12698364 -173.81103943 751.12698364 -174.83103943 751.12698364 C-175.16103943 748.81698364 -175.49103943 746.50698364 -175.83103943 744.12698364 C-176.82103943 744.12698364 -177.81103943 744.12698364 -178.83103943 744.12698364 C-179.16103943 740.82698364 -179.49103943 737.52698364 -179.83103943 734.12698364 C-180.82103943 733.79698364 -181.81103943 733.46698364 -182.83103943 733.12698364 C-182.83103943 730.81698364 -182.83103943 728.50698364 -182.83103943 726.12698364 C-183.82103943 726.12698364 -184.81103943 726.12698364 -185.83103943 726.12698364 C-185.83103943 722.49698364 -185.83103943 718.86698364 -185.83103943 715.12698364 C-187.15103943 715.12698364 -188.47103943 715.12698364 -189.83103943 715.12698364 C-189.83103943 711.82698364 -189.83103943 708.52698364 -189.83103943 705.12698364 C-190.82103943 704.79698364 -191.81103943 704.46698364 -192.83103943 704.12698364 C-197.71960326 694.34985597 -194.97094303 676.84225034 -194.95802307 666.11395264 C-194.95917712 664.01359892 -194.96076655 661.91324541 -194.96275032 659.81289232 C-194.96690465 654.07619643 -194.96487062 648.33951728 -194.9617641 642.60282135 C-194.95949426 636.40229176 -194.9629975 630.20176498 -194.96574402 624.00123596 C-194.96992767 612.56788866 -194.96957363 601.13454878 -194.96683255 589.70120152 C-194.96431216 579.13584658 -194.96366254 568.57049358 -194.96485519 558.0051384 C-194.96493158 557.3029861 -194.96500796 556.60083381 -194.96508666 555.87740417 C-194.96539803 553.02676879 -194.96571643 550.17613342 -194.96604643 547.32549804 C-194.96910232 520.60862438 -194.96633701 493.89175409 -194.96094953 467.17488095 C-194.95620531 443.46783264 -194.95662804 419.76078971 -194.96141052 396.05374146 C-194.9667721 369.3872292 -194.96888452 342.72071992 -194.96579826 316.05420721 C-194.96547757 313.20829161 -194.96516473 310.36237601 -194.96485519 307.51646042 C-194.96477612 306.81578052 -194.96469704 306.11510062 -194.96461557 305.393188 C-194.96348086 294.83900465 -194.96480322 284.28482346 -194.96733475 273.73064041 C-194.97020097 261.72155275 -194.9693687 249.7124728 -194.964054 237.70338537 C-194.96143337 231.5808158 -194.96038408 225.45825711 -194.96370316 219.33568764 C-194.9667 213.72243947 -194.96501726 208.10921218 -194.9597256 202.49596588 C-194.9586158 200.4739181 -194.95916039 198.45186853 -194.96160139 196.42982192 C-194.97475279 184.6226119 -194.68052836 172.90518903 -193.83103943 161.12698364 C-192.51103943 160.79698364 -191.19103943 160.46698364 -189.83103943 160.12698364 C-189.83103943 156.49698364 -189.83103943 152.86698364 -189.83103943 149.12698364 C-188.51103943 149.12698364 -187.19103943 149.12698364 -185.83103943 149.12698364 C-185.83103943 145.49698364 -185.83103943 141.86698364 -185.83103943 138.12698364 C-184.84103943 138.12698364 -183.85103943 138.12698364 -182.83103943 138.12698364 C-182.83103943 134.82698364 -182.83103943 131.52698364 -182.83103943 128.12698364 C-181.34603943 127.63198364 -181.34603943 127.63198364 -179.83103943 127.12698364 C-178.60134065 123.61507555 -178.60134065 123.61507555 -177.83103943 120.12698364 C-177.17103943 120.12698364 -176.51103943 120.12698364 -175.83103943 120.12698364 C-175.83103943 118.14698364 -175.83103943 116.16698364 -175.83103943 114.12698364 C-173.85103943 113.63198364 -173.85103943 113.63198364 -171.83103943 113.12698364 C-171.83103943 111.14698364 -171.83103943 109.16698364 -171.83103943 107.12698364 C-169.85103943 106.63198364 -169.85103943 106.63198364 -167.83103943 106.12698364 C-167.83103943 103.81698364 -167.83103943 101.50698364 -167.83103943 99.12698364 C-166.84103943 99.12698364 -165.85103943 99.12698364 -164.83103943 99.12698364 C-164.50103943 97.80698364 -164.17103943 96.48698364 -163.83103943 95.12698364 C-162.84103943 95.12698364 -161.85103943 95.12698364 -160.83103943 95.12698364 C-160.83103943 92.81698364 -160.83103943 90.50698364 -160.83103943 88.12698364 C-159.84103943 88.12698364 -158.85103943 88.12698364 -157.83103943 88.12698364 C-157.33603943 86.14698364 -157.33603943 86.14698364 -156.83103943 84.12698364 C-155.84103943 84.12698364 -154.85103943 84.12698364 -153.83103943 84.12698364 C-153.83103943 83.13698364 -153.83103943 82.14698364 -153.83103943 81.12698364 C-152.51103943 81.12698364 -151.19103943 81.12698364 -149.83103943 81.12698364 C-149.83103943 78.81698364 -149.83103943 76.50698364 -149.83103943 74.12698364 C-148.84103943 74.12698364 -147.85103943 74.12698364 -146.83103943 74.12698364 C-146.33603943 72.14698364 -146.33603943 72.14698364 -145.83103943 70.12698364 C-144.84103943 70.12698364 -143.85103943 70.12698364 -142.83103943 70.12698364 C-142.33603943 68.14698364 -142.33603943 68.14698364 -141.83103943 66.12698364 C-141.17103943 66.12698364 -140.51103943 66.12698364 -139.83103943 66.12698364 C-139.33603943 64.64198364 -139.33603943 64.64198364 -138.83103943 63.12698364 C-137.84103943 63.12698364 -136.85103943 63.12698364 -135.83103943 63.12698364 C-135.83103943 61.80698364 -135.83103943 60.48698364 -135.83103943 59.12698364 C-134.51103943 59.12698364 -133.19103943 59.12698364 -131.83103943 59.12698364 C-131.50103943 57.80698364 -131.17103943 56.48698364 -130.83103943 55.12698364 C-130.17103943 55.12698364 -129.51103943 55.12698364 -128.83103943 55.12698364 C-128.50103943 54.13698364 -128.17103943 53.14698364 -127.83103943 52.12698364 C-126.84103943 52.12698364 -125.85103943 52.12698364 -124.83103943 52.12698364 C-124.50103943 50.80698364 -124.17103943 49.48698364 -123.83103943 48.12698364 C-122.84103943 48.12698364 -121.85103943 48.12698364 -120.83103943 48.12698364 C-120.83103943 47.13698364 -120.83103943 46.14698364 -120.83103943 45.12698364 C-119.84103943 45.12698364 -118.85103943 45.12698364 -117.83103943 45.12698364 C-117.50103943 43.80698364 -117.17103943 42.48698364 -116.83103943 41.12698364 C-114.85103943 41.12698364 -112.87103943 41.12698364 -110.83103943 41.12698364 C-110.50103943 39.80698364 -110.17103943 38.48698364 -109.83103943 37.12698364 C-108.84103943 37.12698364 -107.85103943 37.12698364 -106.83103943 37.12698364 C-106.83103943 36.13698364 -106.83103943 35.14698364 -106.83103943 34.12698364 C-104.52103943 34.12698364 -102.21103943 34.12698364 -99.83103943 34.12698364 C-99.50103943 32.80698364 -99.17103943 31.48698364 -98.83103943 30.12698364 C-97.84103943 30.12698364 -96.85103943 30.12698364 -95.83103943 30.12698364 C-95.83103943 29.13698364 -95.83103943 28.14698364 -95.83103943 27.12698364 C-93.52103943 27.12698364 -91.21103943 27.12698364 -88.83103943 27.12698364 C-88.50103943 25.80698364 -88.17103943 24.48698364 -87.83103943 23.12698364 C-85.85103943 23.12698364 -83.87103943 23.12698364 -81.83103943 23.12698364 C-81.50103943 21.80698364 -81.17103943 20.48698364 -80.83103943 19.12698364 C-78.85103943 19.12698364 -76.87103943 19.12698364 -74.83103943 19.12698364 C-74.33603943 17.64198364 -74.33603943 17.64198364 -73.83103943 16.12698364 C-71.52103943 16.12698364 -69.21103943 16.12698364 -66.83103943 16.12698364 C-66.50103943 14.80698364 -66.17103943 13.48698364 -65.83103943 12.12698364 C-63.85103943 12.12698364 -61.87103943 12.12698364 -59.83103943 12.12698364 C-59.83103943 11.13698364 -59.83103943 10.14698364 -59.83103943 9.12698364 C-56.20103943 9.12698364 -52.57103943 9.12698364 -48.83103943 9.12698364 C-48.83103943 7.80698364 -48.83103943 6.48698364 -48.83103943 5.12698364 C-44.21103943 5.12698364 -39.59103943 5.12698364 -34.83103943 5.12698364 C-34.83103943 4.13698364 -34.83103943 3.14698364 -34.83103943 2.12698364 C-25.61127633 -2.48289791 -10.16846274 -0.01207458 0 0 Z " fill="#000000" transform="translate(194.83103942871094,-0.126983642578125)"/>
<path d="M0 0 C1.23737915 0.17619873 1.23737915 0.17619873 2.49975586 0.35595703 C7.52109135 1.16023353 11.63111331 2.64366227 16.3125 4.6875 C18.53560115 5.24691532 20.76879695 5.70496532 23.01367188 6.16845703 C48.67140867 11.96161213 72.49658832 27.90445064 93.05004883 43.71655273 C95.74171632 45.78682314 98.32383357 47.69409626 101.265625 49.40625 C102.27882813 50.04046875 102.27882813 50.04046875 103.3125 50.6875 C103.3125 51.3475 103.3125 52.0075 103.3125 52.6875 C98.40769966 52.03805015 94.3439476 49.99733621 89.9375 47.875 C88.84308594 47.35969727 88.84308594 47.35969727 87.7265625 46.83398438 C84.2687417 45.18843215 80.89034547 43.48074305 77.58203125 41.55078125 C74.85570648 39.99706928 72.30343099 38.7789618 69.375 37.6875 C66.21244785 36.47407364 63.23229791 35.16652477 60.25 33.5625 C56.76713315 31.76173918 53.46410433 30.98247101 49.6328125 30.2421875 C47.20304734 29.66133455 45.09974404 28.81268468 42.8125 27.8125 C35.57515039 24.80810641 27.95911447 23.26701303 20.3125 21.6875 C19.21276855 21.45667725 19.21276855 21.45667725 18.09082031 21.22119141 C3.12895609 18.16065969 -11.4800663 17.21916371 -26.5 20.4375 C-27.23476563 20.59420166 -27.96953125 20.75090332 -28.7265625 20.91235352 C-33.41276717 22.0464107 -36.72961992 23.84475985 -40.6875 26.6875 C-41.6775 27.0175 -42.6675 27.3475 -43.6875 27.6875 C-47.19558562 33.2591654 -47.99110401 39.16595044 -47.875 45.625 C-47.87435547 46.30240234 -47.87371094 46.97980469 -47.87304688 47.67773438 C-47.83477758 52.11272028 -47.39866599 56.32378547 -46.6875 60.6875 C-44.21483235 60.34305119 -44.21483235 60.34305119 -41.6875 59.6875 C-41.3575 59.0275 -41.0275 58.3675 -40.6875 57.6875 C-27.13565971 50.97968378 -12.01546724 47.00242335 2.77197266 44.17529297 C5.14039479 43.72054499 7.49662778 43.22423995 9.85546875 42.72265625 C35.77758171 37.57465951 64.56424461 37.94663051 87.3125 52.6875 C90.9265512 55.38982224 94.18385605 58.43852359 97.3125 61.6875 C98.7975 61.1925 98.7975 61.1925 100.3125 60.6875 C100.6425 60.0275 100.9725 59.3675 101.3125 58.6875 C101.9725 58.6875 102.6325 58.6875 103.3125 58.6875 C103.68568359 57.82898438 103.68568359 57.82898438 104.06640625 56.953125 C110.97557561 44.3909989 126.9273675 35.36628453 140.25 31.375 C153.55603356 28.51202147 165.93101325 31.68350816 177.3125 38.6875 C194.99975761 51.83212861 203.51675938 71.02521037 209.3125 91.6875 C209.651604 92.87037598 209.651604 92.87037598 209.99755859 94.07714844 C212.94428923 104.48195795 214.90799073 114.35760706 215.171875 125.18359375 C215.20664584 128.51240367 215.20664584 128.51240367 215.80859375 131.01635742 C216.83415508 136.45272687 216.54914691 142.04698864 216.5625 147.5625 C216.56550613 148.55511337 216.56550613 148.55511337 216.568573 149.56777954 C216.5783072 162.73855771 216.51362978 177.08411066 212.3125 189.6875 C212.27295766 192.02049825 212.26848268 194.35458189 212.3125 196.6875 C213.08851563 196.89503906 213.86453125 197.10257813 214.6640625 197.31640625 C231.87949427 202.22629669 246.66607545 210.05838733 255.94140625 225.984375 C261.69601332 237.32964022 262.00108186 249.62031618 258.3125 261.6875 C248.98815305 289.53253319 227.49507561 309.82744501 204.3125 326.6875 C203.36117188 327.38875 202.40984375 328.09 201.4296875 328.8125 C192.11732739 335.51979474 182.2359696 340.85407014 171.82446289 345.62109375 C166.19963106 348.21145197 160.75643613 351.05800535 155.3972168 354.16186523 C151.38163896 356.40453834 147.87917283 357.27498884 143.3125 357.6875 C144.67152899 353.61041303 146.69596095 352.93732371 150.3125 350.6875 C185.29926436 327.74328135 226.81809367 298.95827491 237.3125 255.6875 C238.01725397 249.02437158 237.69444996 243.51844821 234.3125 237.6875 C227.4891411 229.75765047 220.16159877 227.43472636 210.3125 224.6875 C210.26351563 225.38875 210.21453125 226.09 210.1640625 226.8125 C209.7642708 231.88571885 209.19918699 236.65311405 207.83984375 241.5546875 C207.20945414 244.10426325 206.8287783 246.65302012 206.4375 249.25 C201.54526265 279.16360397 188.21723331 317.53001284 163.3125 336.6875 C155.34726533 342.10275181 147.10856681 346.95750464 137.3125 347.6875 C137.90663485 351.1543075 138.82735905 354.10216307 140.25 357.3125 C145.90497736 371.33684386 146.75448916 389.44526815 141.3125 403.6875 C134.73090752 417.84621996 126.2383171 425.23754482 111.5859375 430.64453125 C103.27193339 433.29350392 96.22611482 433.99757652 87.5 433.9375 C86.38818359 433.94523437 85.27636719 433.95296875 84.13085938 433.9609375 C76.95682243 433.94414631 70.31881697 433.17394778 63.3125 431.6875 C62.50594971 431.55069824 61.69939941 431.41389648 60.8684082 431.27294922 C53.67447097 430.02189273 47.00820641 427.62796756 40.1875 425.0625 C38.99189453 424.61447021 37.79628906 424.16644043 36.56445312 423.70483398 C27.46786903 420.23938057 18.81735607 416.40700668 10.3125 411.6875 C9.57660645 411.28982422 8.84071289 410.89214844 8.08251953 410.48242188 C-4.03824877 403.91167638 -14.98707199 396.36859224 -25.6875 387.6875 C-26.28481934 387.21795898 -26.88213867 386.74841797 -27.49755859 386.26464844 C-28.9321261 385.11816859 -30.3156547 383.90833597 -31.6875 382.6875 C-31.6875 382.0275 -31.6875 381.3675 -31.6875 380.6875 C-26.70101223 381.27414562 -22.88108193 383.55138169 -18.5625 385.9375 C-8.64617126 391.28871847 1.31727012 395.8175832 11.92016602 399.63354492 C15.00973541 400.75657586 17.56110938 401.85323959 20.3125 403.6875 C22.18355123 404.3586857 22.18355123 404.3586857 24.2265625 404.87109375 C24.98300049 405.07500732 25.73943848 405.2789209 26.51879883 405.48901367 C27.31697021 405.69888916 28.1151416 405.90876465 28.9375 406.125 C38.66861599 408.73625466 38.66861599 408.73625466 43.125 410.375 C60.77992004 416.43228808 88.10176459 417.44073227 105.3125 409.6875 C112.24808839 405.95626098 115.82439113 401.15182661 118.3125 393.6875 C118.64111165 386.62234949 118.40815123 379.67227657 117.3125 372.6875 C111.16031955 374.64005372 105.12297841 376.70622354 99.1875 379.25 C94.58548333 381.2205605 90.00162076 382.78554024 85.17578125 384.109375 C83.31730144 384.5274303 83.31730144 384.5274303 82.3125 385.6875 C80.73686986 386.01826205 79.15106139 386.30080058 77.5625 386.5625 C73.40320372 387.27796303 69.34215617 388.15796135 65.25 389.1875 C42.96247156 394.3468926 15.55808744 396.49000077 -5.6875 386.6875 C-7.12222656 386.05521484 -7.12222656 386.05521484 -8.5859375 385.41015625 C-16.37794945 381.78350378 -21.907335 377.8577475 -26.6875 370.6875 C-30.06460062 371.81320021 -30.31861954 372.29319028 -32.1875 375.125 C-41.38668317 387.80803224 -57.23689265 399.03094368 -72.7265625 402.3359375 C-86.57353831 403.98003753 -98.38572199 400.98169742 -109.6875 392.6875 C-133.80104537 372.93182427 -141.85327749 339.20461208 -145.07998657 309.69252014 C-145.9130182 301.27759826 -146.03738036 292.88756342 -146 284.4375 C-145.99876129 283.24207077 -145.99876129 283.24207077 -145.99749756 282.02249146 C-145.9200265 249.39290565 -145.9200265 249.39290565 -140.6875 239.6875 C-140.3575 239.6875 -140.0275 239.6875 -139.6875 239.6875 C-139.65309814 240.51024414 -139.61869629 241.33298828 -139.58325195 242.18066406 C-138.71012319 261.71167459 -136.73422818 280.51588389 -132.6875 299.6875 C-132.4498291 300.83573242 -132.2121582 301.98396484 -131.96728516 303.16699219 C-126.71377024 328.25578075 -118.51210126 360.3610632 -95.6875 375.6875 C-89.17497772 378.46135208 -82.26269432 378.99494811 -75.58984375 376.5546875 C-69.59871856 373.71873976 -65.00129669 370.7202628 -60.6875 365.6875 C-61.93504091 361.94487727 -63.20208912 361.4240839 -66.4375 359.25 C-73.4237185 354.29842761 -79.53166491 348.62366629 -85.6875 342.6875 C-86.30737793 342.09485352 -86.92725586 341.50220703 -87.56591797 340.89160156 C-104.51342819 324.62576454 -117.00864502 306.53303467 -127.6875 285.6875 C-128.25984375 284.65496094 -128.25984375 284.65496094 -128.84375 283.6015625 C-129.91968271 281.16078922 -130.32016538 278.81707652 -130.75 276.1875 C-131.34077331 272.48181465 -131.34077331 272.48181465 -132.23046875 268.84375 C-134.38603081 258.67391876 -132.83984691 247.42600028 -129.6875 237.6875 C-130.595 237.749375 -131.5025 237.81125 -132.4375 237.875 C-139.42803164 237.88929557 -146.49183851 235.81147278 -152.6875 232.6875 C-153.821875 232.501875 -154.95625 232.31625 -156.125 232.125 C-167.66016555 229.31102107 -177.32502669 219.20158952 -183.6875 209.6875 C-189.82972358 197.72931414 -192.26575045 184.83208357 -188.37109375 171.73046875 C-185.31032541 162.66474734 -181.40757181 154.39161294 -175.6875 146.6875 C-174.95917969 145.6665625 -174.23085937 144.645625 -173.48046875 143.59375 C-161.42982397 127.04829906 -145.95817969 114.47609018 -129.28759766 102.8203125 C-127.88801315 101.82945622 -126.51034563 100.80778892 -125.13671875 99.78125 C-115.06655904 92.3344092 -103.40798538 87.42153496 -92.07836914 82.20678711 C-87.0024002 79.86502283 -82.03062394 77.34517277 -77.078125 74.75390625 C-74.6875 73.6875 -74.6875 73.6875 -71.6875 73.6875 C-71.6875 74.3475 -71.6875 75.0075 -71.6875 75.6875 C-76.77000707 79.96388409 -82.42464528 83.56686401 -88.0625 87.0625 C-94.6201734 91.16572993 -100.61345528 95.91337823 -106.6875 100.6875 C-107.50347656 101.30753906 -108.31945312 101.92757812 -109.16015625 102.56640625 C-114.0895282 106.31342444 -118.70607515 110.32048364 -123.27734375 114.49609375 C-125.42721812 116.45084176 -127.60866823 118.35668855 -129.8125 120.25 C-136.33318755 125.97675154 -142.10488032 132.01808513 -147.5 138.8125 C-147.96833252 139.39845947 -148.43666504 139.98441895 -148.91918945 140.58813477 C-151.66809706 144.11435054 -153.81634332 147.59706447 -155.6875 151.6875 C-156.3475 151.6875 -157.0075 151.6875 -157.6875 151.6875 C-158.0278125 152.863125 -158.0278125 152.863125 -158.375 154.0625 C-159.77290414 157.92337809 -161.53951328 161.4100249 -163.46875 165.02734375 C-167.36878406 173.53991809 -168.68787684 183.67061848 -165.6953125 192.671875 C-161.80386994 199.92710689 -155.88547901 204.0107646 -148.13085938 206.51220703 C-145.65524801 207.25846691 -143.17561977 207.98419067 -140.6875 208.6875 C-140.56221924 207.83220703 -140.43693848 206.97691406 -140.30786133 206.09570312 C-135.94521043 176.70271366 -135.94521043 176.70271366 -131.734375 164.70703125 C-130.83453061 162.11158456 -130.2287152 159.6951666 -129.75 157 C-128.61439346 151.47824344 -126.06793717 146.55881542 -123.59228516 141.52783203 C-122.63719898 139.58518777 -121.69954279 137.63462359 -120.76171875 135.68359375 C-114.77583435 123.34402641 -108.21277234 112.66558665 -98.6875 102.6875 C-98.00042969 101.90246094 -97.31335938 101.11742187 -96.60546875 100.30859375 C-89.75890933 92.80151283 -80.59141228 86.93353406 -70.3125 85.75 C-69.11625 85.729375 -67.92 85.70875 -66.6875 85.6875 C-67.19410156 83.96853516 -67.19410156 83.96853516 -67.7109375 82.21484375 C-68.16147303 80.68490016 -68.61199304 79.154952 -69.0625 77.625 C-69.28421875 76.87283203 -69.5059375 76.12066406 -69.734375 75.34570312 C-70.17916134 73.83473777 -70.61939008 72.32242371 -71.05517578 70.80883789 C-71.59447816 68.9995721 -72.20425531 67.2115619 -72.828125 65.4296875 C-74.09498176 59.91310216 -74.05609929 54.51722411 -74.0625 48.875 C-74.08699219 47.75029297 -74.11148438 46.62558594 -74.13671875 45.46679688 C-74.18184841 32.52210658 -69.22570791 22.34241391 -60.375 13 C-54.95916029 7.87046019 -49.24638363 3.52946623 -41.8125 2.12109375 C-39.6317242 1.72138153 -39.6317242 1.72138153 -37.375 0.91015625 C-25.25260274 -3.09984406 -12.43667793 -1.79099226 0 0 Z " fill="#FAFAFA" transform="translate(396.6875,217.3125)"/>
<path d="M0 0 C2.19360286 1.80045205 3.88235375 3.6773371 5.66796875 5.88671875 C6.88419922 7.37558594 6.88419922 7.37558594 8.125 8.89453125 C10.31894095 11.64583393 12.42553567 14.45285258 14.50146484 17.29394531 C15.55976262 18.73897141 16.63816212 20.16922198 17.71875 21.59765625 C18.62173828 22.82355469 18.62173828 22.82355469 19.54296875 24.07421875 C20.05601562 24.76902344 20.5690625 25.46382813 21.09765625 26.1796875 C25.87000984 34.40665525 27.93049484 43.35173141 29.91796875 52.57421875 C30.32015625 54.35022461 30.32015625 54.35022461 30.73046875 56.16210938 C33.36590215 68.16274361 33.36590215 68.16274361 32.66796875 72.88671875 C29.72618017 76.28225365 25.12723094 77.35873115 20.98046875 78.82421875 C16.54469538 80.43532746 12.14617776 82.03799261 7.85546875 84.01171875 C3.92493579 85.81106217 -0.06663018 87.31707088 -4.14453125 88.75 C-6.49662188 89.58879703 -8.81923052 90.46002033 -11.14453125 91.3671875 C-21.09611636 95.17119832 -30.72937094 97.21976028 -41.27832031 98.59423828 C-43.88648853 98.96568211 -46.44331343 99.52648915 -49.01953125 100.07421875 C-53.1752746 100.68705044 -57.19918664 100.99405986 -61.3984375 101.0078125 C-62.49389893 101.01208252 -63.58936035 101.01635254 -64.71801758 101.02075195 C-69.58989761 101.00766976 -74.46074735 100.96353424 -79.33203125 100.88671875 C-72.49974486 71.83995931 -61.48095097 43.80413329 -43.33203125 19.88671875 C-42.74164063 19.09265625 -42.15125 18.29859375 -41.54296875 17.48046875 C-38.13326736 13.24773599 -34.08668823 9.91793813 -29.83203125 6.57421875 C-29.29787598 6.15285645 -28.7637207 5.73149414 -28.21337891 5.29736328 C-20.31717014 -0.68081614 -9.56969115 -4.56844552 0 0 Z " fill="#030203" transform="translate(342.33203125,327.11328125)"/>
<path d="M0 0 C3.48362356 -0.07067303 6.96700911 -0.11571703 10.45120239 -0.14663696 C11.83543253 -0.16029627 13.21962697 -0.17850219 14.60372925 -0.20175171 C27.31667706 -0.39801512 39.42230617 0.8447578 50.75097656 6.95751953 C51.72550781 7.44671875 51.72550781 7.44671875 52.71972656 7.94580078 C59.5974953 11.50948337 64.71887885 15.38449481 67.62207031 22.77001953 C68.6228074 26.44974846 68.22782379 29.48797712 67.25097656 33.08251953 C67.0228125 33.94232422 66.79464844 34.80212891 66.55957031 35.68798828 C60.75300303 54.98245623 49.95240356 70.48521342 34.25097656 83.08251953 C33.3421875 83.88947266 32.43339844 84.69642578 31.49707031 85.52783203 C30.52898437 86.37087891 29.56089844 87.21392578 28.56347656 88.08251953 C27.67273438 88.86626953 26.78199219 89.65001953 25.86425781 90.45751953 C23.25097656 92.08251953 23.25097656 92.08251953 20.89941406 92.18017578 C16.98494565 90.5578076 13.88834166 88.1176685 10.56347656 85.52001953 C9.84869141 84.97063721 9.13390625 84.42125488 8.39746094 83.85522461 C6.97642853 82.76003301 5.55852813 81.66076357 4.14404297 80.55712891 C2.62060585 79.3704433 1.08426599 78.20033145 -0.45605469 77.03564453 C-6.71823013 72.21366276 -12.41513048 66.80890243 -18.12988281 61.3605957 C-20.82420744 58.79534648 -23.4580345 56.30718011 -26.40527344 54.03173828 C-29.36889569 51.56699244 -31.61762708 48.69604385 -33.93652344 45.64501953 C-34.40993164 45.02957275 -34.88333984 44.41412598 -35.37109375 43.7800293 C-36.35167663 42.5050432 -37.33034917 41.22858565 -38.30712891 39.95068359 C-39.66396027 38.19273005 -41.04552354 36.45876775 -42.44042969 34.73095703 C-56.74902344 16.87152237 -56.74902344 16.87152237 -56.74902344 9.08251953 C-37.65948151 3.883753 -19.80692309 0.435969 0 0 Z " fill="#020202" transform="translate(410.7490234375,274.91748046875)"/>
<path d="M0 0 C-0.71844573 3.00767904 -1.58415617 5.9408421 -2.5234375 8.88671875 C-2.8225 9.82580078 -3.1215625 10.76488281 -3.4296875 11.73242188 C-3.89761719 13.19518555 -3.89761719 13.19518555 -4.375 14.6875 C-4.67921875 15.64333984 -4.9834375 16.59917969 -5.296875 17.58398438 C-5.90493923 19.49003188 -6.51617395 21.39507092 -7.13061523 23.29907227 C-7.67226223 24.98181328 -8.20689138 26.66684971 -8.73071289 28.35522461 C-10.58611144 34.20240455 -13.02183526 39.66729729 -15.6875 45.1875 C-16.12884277 46.10515137 -16.57018555 47.02280273 -17.02490234 47.96826172 C-24.86517877 64.09836521 -33.96472989 79.47354155 -47 92 C-47.66 92 -48.32 92 -49 92 C-49 92.66 -49 93.32 -49 94 C-51.269616 95.14829977 -53.54060778 96.29371978 -55.8125 97.4375 C-56.45509766 97.76298828 -57.09769531 98.08847656 -57.75976562 98.42382812 C-64.40997909 101.76616339 -69.58887716 102.75493504 -77 102 C-82.56034866 99.32279509 -86.24063222 94.95893672 -89.375 89.6875 C-90.85374635 87.24188104 -92.42988843 85.25472327 -94.25 83.0625 C-98.86777474 77.22900537 -101.91433751 70.74123626 -105 64 C-105.36480469 63.21625 -105.72960937 62.4325 -106.10546875 61.625 C-107.3747886 57.90018368 -107.91182042 54.13286668 -108.5 50.25 C-109.26872101 45.34915784 -110.0438489 40.50395472 -111.25 35.6875 C-112.42164441 29.92691497 -112.42164441 29.92691497 -111 27 C-96.69609657 16.68788357 -76.70658848 11.91348136 -60 7 C-59.24525391 6.77779785 -58.49050781 6.5555957 -57.71289062 6.32666016 C-38.2877118 0.69658239 -20.18971635 -0.33143871 0 0 Z " fill="#020202" transform="translate(601,440)"/>
<path d="M0 0 C4.03164842 1.61265937 6.76223122 4.45770124 9.75 7.5 C10.28149658 8.03753906 10.81299316 8.57507813 11.3605957 9.12890625 C15.93793111 13.82062305 20.0489922 18.76977246 24 24 C24.6703125 24.85335938 25.340625 25.70671875 26.03125 26.5859375 C39.40231375 43.88111779 55.87637575 65.3501006 57 88 C57.09023438 89.29679687 57.18046875 90.59359375 57.2734375 91.9296875 C57.75172149 101.66846047 56.44747407 109.05836214 49.75 116.5 C45.92858211 118.58440976 42.26358569 119.26984465 38 120 C37.13632812 120.185625 36.27265625 120.37125 35.3828125 120.5625 C15.17966418 124.59193678 -8.51115515 122.6592299 -26 111 C-27.65549531 110.61500109 -29.3222433 110.27206865 -31 110 C-31.39829145 102.3439532 -30.65956703 95.18597502 -29.19897461 87.68798828 C-28.3637666 83.32458948 -27.78450224 79.03818086 -27.42993164 74.61083984 C-26.40702283 62.25543387 -22.78784564 50.75657448 -19 39 C-18.7740918 38.28263672 -18.54818359 37.56527344 -18.31542969 36.82617188 C-14.17005108 23.76722473 -8.1177452 11.06965254 0 0 Z " fill="#020202" transform="translate(521,292)"/>
<path d="M0 0 C0.24089251 8.29556263 -0.39000875 16.08202325 -1.8125 24.25 C-1.99627197 25.34119141 -2.18004395 26.43238281 -2.36938477 27.55664062 C-2.73709849 29.72414878 -3.10958202 31.89085426 -3.48730469 34.05664062 C-3.92369351 36.56192805 -4.34418536 39.06901489 -4.7578125 41.578125 C-6.4439282 51.30720637 -9.0029306 60.61025758 -12 70 C-12.35707031 71.16015625 -12.71414063 72.3203125 -13.08203125 73.515625 C-17.20971501 86.05911629 -23.47298658 98.15275665 -31 109 C-43.40743431 107.0467232 -56.96615776 83.83562341 -64.1171875 74.125 C-65.77422871 71.76831917 -67.39723387 69.39384865 -69 67 C-69.53238281 66.22011719 -70.06476563 65.44023438 -70.61328125 64.63671875 C-75.77966758 57.00892752 -79.77174934 49.64375811 -83 41 C-83.43828125 39.83082031 -83.8765625 38.66164063 -84.328125 37.45703125 C-87.45019723 28.94310439 -89.19336838 21.53811881 -89.3125 12.5 C-89.34150391 11.76652344 -89.37050781 11.03304688 -89.40039062 10.27734375 C-89.4615382 5.01865231 -88.37367897 2.22334626 -85 -2 C-84.319375 -2.9075 -83.63875 -3.815 -82.9375 -4.75 C-65.88981998 -24.54730584 -19.13240353 -7.54099898 0 0 Z " fill="#020202" transform="translate(374,466)"/>
<path d="M0 0 C4.26528127 0.14313024 7.04836969 3.3729546 10.0625 6.0625 C14.10655385 9.58846455 18.1590764 12.92144367 22.5625 16 C28.25575172 20.05603049 33.29876154 24.68048829 38.3671875 29.46875 C40.10575675 31.09917858 41.86307312 32.70735475 43.625 34.3125 C49.7724042 39.92534732 55.80231965 45.47295901 61 52 C61.76570313 52.93972656 62.53140625 53.87945313 63.3203125 54.84765625 C68.00455771 60.69436201 72.24078404 66.71643287 76.125 73.125 C76.5154248 73.76445557 76.90584961 74.40391113 77.30810547 75.06274414 C78.99561075 77.92061599 80 79.62287375 80 83 C72.47184117 85.27539206 64.91229554 87.35143037 57.25 89.125 C56.59789551 89.28323242 55.94579102 89.44146484 55.27392578 89.60449219 C41.67825169 92.66279756 27.60649914 93.39211106 13.71289062 93.42553711 C11.36745721 93.4375386 9.02458025 93.48709866 6.6796875 93.53710938 C-4.05603895 93.6497954 -12.97565491 91.78347634 -23 88 C-23.93062256 87.65710938 -24.86124512 87.31421875 -25.82006836 86.9609375 C-31.5260151 84.77288042 -35.69544068 81.27534286 -40 77 C-40.804375 76.21625 -41.60875 75.4325 -42.4375 74.625 C-45.4624398 69.54310113 -45.40646385 64.14385195 -44.3125 58.4375 C-43.34840782 54.69759881 -41.8872015 51.4677224 -40.05078125 48.08203125 C-38.92470872 45.85081691 -38.13625229 43.60841409 -37.3125 41.25 C-31.2416214 25.95605583 -16.78912487 13.68570762 -4.14453125 3.70703125 C-1.95420261 2.02944559 -1.95420261 2.02944559 0 0 Z " fill="#020203" transform="translate(430,500)"/>
<path d="M0 0 C0.33 0 0.66 0 1 0 C1.66969591 2.4575448 2.3358768 4.91594924 3 7.375 C3.19078125 8.07367188 3.3815625 8.77234375 3.578125 9.4921875 C5 14.7734375 5 14.7734375 5 17 C3.80375 17.185625 2.6075 17.37125 1.375 17.5625 C-15.71823701 21.56872742 -28.54005012 33.36373875 -37.875 47.875 C-39.30877554 50.21881269 -40.66406064 52.5993176 -42 55 C-42.37850098 55.66789551 -42.75700195 56.33579102 -43.14697266 57.02392578 C-49.56572244 68.42533917 -55.44410828 80.1638295 -58.49291992 92.95288086 C-58.99880778 94.99518693 -59.57634882 97.00130751 -60.18359375 99.015625 C-62.86633381 108.01568262 -64.80327568 116.86691212 -66.01147461 126.18652344 C-66.63762802 130.96699209 -67.55214387 135.39766583 -69 140 C-77.05176373 139.47488497 -85.34314389 135.81848057 -91 130 C-96.12966497 123.71616042 -96.71158818 117.66649837 -96.41796875 109.70703125 C-95.32152906 99.98253341 -90.48300023 91.56253044 -86 83 C-85.34 83 -84.68 83 -84 83 C-83.85498047 82.16275391 -83.85498047 82.16275391 -83.70703125 81.30859375 C-80.64484822 71.30997401 -70.09262605 62.4046184 -63 55 C-62.0409375 53.9790625 -62.0409375 53.9790625 -61.0625 52.9375 C-56.96513723 48.68254636 -52.44971268 45.00013736 -47.84375 41.30859375 C-45.74008596 39.60081155 -43.68509554 37.86953024 -41.640625 36.09375 C-37.95871549 32.92472086 -34.13949026 29.9712076 -30.25 27.0625 C-29.20283813 26.27709839 -29.20283813 26.27709839 -28.13452148 25.47583008 C-23.38368764 21.9456245 -18.52356146 18.69685189 -13.4765625 15.6015625 C-10.05552094 13.38921701 -6.92102039 10.87172563 -3.77734375 8.28515625 C-2 7 -2 7 0 7 C-0.495 5.515 -0.495 5.515 -1 4 C-0.5625 1.8125 -0.5625 1.8125 0 0 Z " fill="#060506" transform="translate(325,286)"/>
<path d="M0 0 C9.39165078 0.52175838 17.28458246 4.44837313 24 11 C28.42069454 17.24994745 28.65282194 23.53094895 28 31 C23.48376732 52.78777116 7.95169052 70.50853726 -7 86 C-7.83015625 86.87140625 -8.6603125 87.7428125 -9.515625 88.640625 C-25.1177564 104.6917386 -44.59219216 117.12825335 -63.359375 129.15234375 C-66.06513542 130.7332227 -66.06513542 130.7332227 -67 133 C-66.01 133.33 -65.02 133.66 -64 134 C-65.65 134 -67.3 134 -69 134 C-69.495 134.99 -69.495 134.99 -70 136 C-70.70133599 134.42274653 -71.385583 132.83788667 -72.0625 131.25 C-72.63677734 129.92742187 -72.63677734 129.92742187 -73.22265625 128.578125 C-74.04600008 125.84743691 -73.9773992 124.63098653 -73 122 C-72.195625 121.94005859 -72.195625 121.94005859 -71.375 121.87890625 C-57.92178721 120.08661968 -45.37001742 111.36287871 -37 101 C-29.67615212 91.38673777 -24.06121124 80.94223468 -19 70 C-18.52022705 68.99223511 -18.52022705 68.99223511 -18.03076172 67.96411133 C-15.09200918 61.62648404 -12.96360198 55.09640784 -10.875 48.4375 C-10.35486328 46.81038086 -10.35486328 46.81038086 -9.82421875 45.15039062 C-7.39140751 37.4744517 -5.16857492 29.93284159 -4.0625 21.9375 C-2.98069587 14.56392307 -1.51355888 7.29535382 0 0 Z " fill="#070607" transform="translate(607,442)"/>
<path d="M0 0 C3.81151123 1.90575561 4.63183395 2.56777687 7 5.75 C15.68558075 15.90460075 33.02384111 20.66097084 46 22 C57.9888094 22.63285149 69.9036856 22.15475106 81.8125 20.6875 C82.7830835 20.56987305 83.75366699 20.45224609 84.75366211 20.33105469 C90.30307678 19.58187173 95.48988516 18.40105396 100.80908203 16.64575195 C102.92765507 16.02132297 104.86859416 15.71154177 107.0625 15.5 C111.69100157 14.91225377 115.64426284 13.62089453 120 12 C121.55654297 11.42185547 121.55654297 11.42185547 123.14453125 10.83203125 C128.9012564 8.65399205 134.55936731 6.38863737 140.09765625 3.69921875 C142 3 142 3 146 3 C148.60517802 11.30400495 149.70390042 20.58171795 146.5 28.875 C142.56579394 36.29417752 137.16177693 39.8975749 129.25 42.375 C127.17313726 42.9409697 125.09026445 43.48572859 123 44 C122.41089844 44.1757959 121.82179688 44.3515918 121.21484375 44.53271484 C115.86189357 45.66207404 110.20385065 45.24518888 104.75 45.25 C104.07016052 45.25067474 103.39032104 45.25134949 102.68988037 45.25204468 C87.82497285 45.22854302 74.69972355 42.84029717 60.6171875 38.1875 C57.67354729 37.22112136 54.73139644 36.33822009 51.75 35.5 C47.04024576 34.09809991 42.5681207 32.24374259 38.0546875 30.30859375 C36.08977372 29.4668468 34.1162367 28.64480903 32.1328125 27.84765625 C24.14801234 24.63426106 16.51217308 20.84686297 8.85058594 16.94140625 C6.24064311 15.61370974 3.6205681 14.3065722 1 13 C-0.33333333 12.33333333 -1.66666667 11.66666667 -3 11 C-3 11.66 -3 12.32 -3 13 C-3.66 13 -4.32 13 -5 13 C-5.33 12.34 -5.66 11.68 -6 11 C-6.66 10.67 -7.32 10.34 -8 10 C-5.36 6.7 -2.72 3.4 0 0 Z " fill="#070607" transform="translate(368,587)"/>
<path d="M0 0 C4.29 0.66 8.58 1.32 13 2 C12.09354276 8.60418848 12.09354276 8.60418848 11.4765625 11.21484375 C10.83987892 14.93578962 10.81578924 18.61210934 10.8125 22.375 C10.80025391 23.10460937 10.78800781 23.83421875 10.77539062 24.5859375 C10.76244243 29.41993177 11.58612427 33.34314538 13 38 C13.11085938 39.27230469 13.22171875 40.54460937 13.3359375 41.85546875 C13.89856448 46.91545814 16.18507616 50.91262275 18.625 55.3125 C19.07939453 56.14990723 19.53378906 56.98731445 20.00195312 57.85009766 C28.26257433 72.93128128 38.13903626 86.54956066 50 99 C50.53753906 99.56477051 51.07507813 100.12954102 51.62890625 100.71142578 C60.18627039 109.64258687 69.0702092 117.62888693 79 125 C79.79019531 125.59296875 80.58039063 126.1859375 81.39453125 126.796875 C81.92433594 127.19390625 82.45414062 127.5909375 83 128 C79.95532061 134.97675278 73.27682394 139.57997306 66.35546875 142.34375 C60.28719798 144.0344125 53.84393131 143.75290353 48.0546875 141.20703125 C29.85072673 130.5130695 19.43661624 106.58823819 14.21875 86.9765625 C11.47913723 76.05920562 9.21868095 65.03261895 7 54 C6.82694336 53.16887695 6.65388672 52.33775391 6.47558594 51.48144531 C4.01413576 39.54633594 3.31624174 27.51786512 2.73339844 15.36987305 C2.66540039 14.073479 2.59740234 12.77708496 2.52734375 11.44140625 C2.47312256 10.27295166 2.41890137 9.10449707 2.36303711 7.90063477 C2.19562769 4.80911071 2.19562769 4.80911071 0 2 C0 1.34 0 0.68 0 0 Z " fill="#070707" transform="translate(254,453)"/>
<path d="M0 0 C1.86853128 0.69007865 3.78470319 1.24697574 5.69995117 1.79418945 C8.71157903 2.65465456 11.34695285 3.70112475 14.16870117 5.04418945 C17.98534845 6.83048423 21.81669754 8.48471021 25.73120117 10.04418945 C31.96316062 12.60549216 37.82562361 15.73684076 43.73120117 18.9621582 C44.80370117 19.54610352 45.87620117 20.13004883 46.98120117 20.73168945 C47.69791992 21.12743164 48.41463867 21.52317383 49.15307617 21.9309082 C52.32304621 23.31946346 55.55666571 23.38923591 58.98120117 23.73168945 C57.70724227 25.7700237 56.37058195 27.77021071 54.98120117 29.73168945 C54.32120117 29.73168945 53.66120117 29.73168945 52.98120117 29.73168945 C52.32120117 31.05168945 51.66120117 32.37168945 50.98120117 33.73168945 C47.72172269 32.30792613 45.6669007 30.55224381 43.16870117 28.04418945 C24.81398603 11.54590553 -0.82773312 11.5241964 -24.01879883 12.73168945 C-30.46786052 13.22621844 -36.71108497 14.32942857 -43.01879883 15.73168945 C-44.00750977 15.94631836 -44.9962207 16.16094727 -46.01489258 16.38208008 C-65.64947335 20.45855533 -65.64947335 20.45855533 -84.18676758 27.87231445 C-86.01879883 28.73168945 -86.01879883 28.73168945 -89.01879883 28.73168945 C-89.34879883 29.72168945 -89.67879883 30.71168945 -90.01879883 31.73168945 C-91.66879883 31.73168945 -93.31879883 31.73168945 -95.01879883 31.73168945 C-96.67552958 26.66248939 -97.35692608 22.08265902 -97.33129883 16.73168945 C-97.34741211 16.05879883 -97.36352539 15.3859082 -97.38012695 14.69262695 C-97.38622109 8.37910281 -95.84155864 3.85003194 -91.70629883 -0.95581055 C-67.81167098 -21.51630427 -25.94904446 -10.15502673 0 0 Z " fill="#060606" transform="translate(445.018798828125,246.268310546875)"/>
<path d="M0 0 C22.27654626 12.79564817 30.92645696 40.61133972 37.26196289 63.76000977 C40.29526443 75.2025877 42.12887414 86.2565624 42.9375 98.0625 C43.09195496 100.25933453 43.24938063 102.45596275 43.41015625 104.65234375 C43.50889038 106.08694946 43.50889038 106.08694946 43.60961914 107.55053711 C43.79956248 110.04685605 43.79956248 110.04685605 44.39794922 112.10083008 C45.02574151 114.76460997 44.98661231 117.24898686 44.97265625 119.984375 C44.96782227 121.65693359 44.96782227 121.65693359 44.96289062 123.36328125 C44.95032227 125.10158203 44.95032227 125.10158203 44.9375 126.875 C44.93298828 128.04933594 44.92847656 129.22367188 44.92382812 130.43359375 C44.91205094 133.33078072 44.89560326 136.22786454 44.875 139.125 C41.905 139.125 38.935 139.125 35.875 139.125 C36.75 130.5 36.75 130.5 37.875 127.125 C39.87497177 100.01062856 27.5844421 76.61871766 10.875 56.125 C10.18019531 55.22652344 9.48539063 54.32804687 8.76953125 53.40234375 C-0.75565075 41.26801246 -11.95827106 30.57167474 -24.125 21.125 C-26.02236851 19.60608236 -27.91826145 18.08531922 -29.8125 16.5625 C-31.24949468 15.41603301 -32.68679506 14.2699484 -34.125 13.125 C-33.77942662 10.21044718 -33.18258055 9.18149617 -31.05078125 7.08984375 C-21.23442864 -0.52553294 -12.41302023 -5.52124875 0 0 Z " fill="#070707" transform="translate(561.125,273.875)"/>
<path d="M0 0 C4.01351612 1.51366894 7.72149132 3.48165231 11.484375 5.53125 C12.65419922 6.15580078 12.65419922 6.15580078 13.84765625 6.79296875 C19.57266212 9.86953712 19.57266212 9.86953712 20.734375 11.03125 C20.89223808 12.88299706 20.98544856 14.7403411 21.05078125 16.59765625 C21.09267578 17.72236328 21.13457031 18.84707031 21.17773438 20.00585938 C21.21705078 21.18986328 21.25636719 22.37386719 21.296875 23.59375 C21.34005859 24.78162109 21.38324219 25.96949219 21.42773438 27.19335938 C21.53421046 30.13919784 21.63622341 33.0851243 21.734375 36.03125 C21.04657959 36.43682129 20.35878418 36.84239258 19.65014648 37.26025391 C18.29771851 38.06342041 18.29771851 38.06342041 16.91796875 38.8828125 C15.57690063 39.67679443 15.57690063 39.67679443 14.20874023 40.48681641 C11.57832336 42.05896792 11.57832336 42.05896792 8.796875 44.40625 C6.734375 46.03125 6.734375 46.03125 3.734375 46.03125 C3.734375 46.69125 3.734375 47.35125 3.734375 48.03125 C-1.83345161 47.52349223 -5.77498548 45.39991683 -10.515625 42.65625 C-11.23492187 42.25664062 -11.95421875 41.85703125 -12.6953125 41.4453125 C-16.14841834 39.47949943 -18.00462932 38.42274352 -20.265625 35.03125 C-20.49267578 32.48754883 -20.49267578 32.48754883 -20.4609375 29.48828125 C-20.45449219 28.41513672 -20.44804687 27.34199219 -20.44140625 26.23632812 C-20.41626953 24.55700195 -20.41626953 24.55700195 -20.390625 22.84375 C-20.38160156 21.71259766 -20.37257813 20.58144531 -20.36328125 19.41601562 C-20.33969362 16.62088172 -20.306778 13.82617155 -20.265625 11.03125 C-19.38519531 10.57234375 -18.50476563 10.1134375 -17.59765625 9.640625 C-16.43621094 9.02703125 -15.27476562 8.4134375 -14.078125 7.78125 C-12.92957031 7.17796875 -11.78101563 6.5746875 -10.59765625 5.953125 C-7.24485715 4.16476026 -7.24485715 4.16476026 -4.65234375 1.734375 C-2.265625 0.03125 -2.265625 0.03125 0 0 Z " fill="#050505" transform="translate(431.265625,409.96875)"/>
<path d="M0 0 C0.66 0.33 1.32 0.66 2 1 C-6.91 9.91 -15.82 18.82 -25 28 C-25.66 27.67 -26.32 27.34 -27 27 C-18.37875421 17.53860282 -9.55367699 8.52213379 0 0 Z " fill="#2B2B2C" transform="translate(276,328)"/>
<path d="M0 0 C0 0.66 0 1.32 0 2 C-1.8984375 3.7265625 -1.8984375 3.7265625 -4.375 5.625 C-5.18710937 6.25664062 -5.99921875 6.88828125 -6.8359375 7.5390625 C-9 9 -9 9 -11 9 C-11 8.34 -11 7.68 -11 7 C-12.32 6.67 -13.64 6.34 -15 6 C-13.06629769 4.99267601 -11.12789694 3.99436712 -9.1875 3 C-8.10855469 2.443125 -7.02960938 1.88625 -5.91796875 1.3125 C-3 0 -3 0 0 0 Z " fill="#D3D2D3" transform="translate(325,291)"/>
<path d="M0 0 C2.13093906 1.06546953 3.36587557 2.29159719 5 4 C3.39850114 4.67305018 1.79368971 5.33822227 0.1875 6 C-0.70582031 6.37125 -1.59914063 6.7425 -2.51953125 7.125 C-5 8 -5 8 -8 8 C-6.6636586 3.99097581 -4.50572968 3.19108105 -1 1 C-0.67 0.67 -0.34 0.34 0 0 Z " fill="#DADADC" transform="translate(548,567)"/>
<path d="M0 0 C4.75481646 0.57634139 7.97048212 2.55068521 12 5 C10.68 5.99 9.36 6.98 8 8 C6.66102417 7.04956626 5.32894573 6.08940853 4 5.125 C3.2575 4.59132813 2.515 4.05765625 1.75 3.5078125 C1.1725 3.01023437 0.595 2.51265625 0 2 C0 1.34 0 0.68 0 0 Z " fill="#DAD6D7" transform="translate(365,598)"/>
<path d="M0 0 C0.66 0.33 1.32 0.66 2 1 C-2.29 5.29 -6.58 9.58 -11 14 C-11.66 13.67 -12.32 13.34 -13 13 C-9.0580583 8.11950075 -4.88049925 3.9419417 0 0 Z " fill="#282929" transform="translate(313,333)"/>
<path d="M0 0 C1.33855056 0.78281305 2.67073644 1.57651877 4 2.375 C5.11375 3.03628906 5.11375 3.03628906 6.25 3.7109375 C6.8275 4.13632812 7.405 4.56171875 8 5 C8 5.66 8 6.32 8 7 C3.61110675 6.33501617 0.0188515 4.81242323 -4 3 C-2.68 2.01 -1.36 1.02 0 0 Z " fill="#CBCBCB" transform="translate(492,263)"/>
<path d="M0 0 C0 0.66 0 1.32 0 2 C-2.25 3.75 -2.25 3.75 -5 5 C-7.3125 4.1875 -7.3125 4.1875 -9 3 C-3.375 0 -3.375 0 0 0 Z " fill="#B3B3B4" transform="translate(325,291)"/>
<path d="M0 0 C1.98 0.66 3.96 1.32 6 2 C4.68 2.99 3.36 3.98 2 5 C1.01 4.34 0.02 3.68 -1 3 C-0.67 2.01 -0.34 1.02 0 0 Z " fill="#E9E6E7" transform="translate(371,601)"/>
<path d="M0 0 C-0.33 0.66 -0.66 1.32 -1 2 C-3.32156597 2.40729228 -5.6568787 2.74438677 -8 3 C-7.67 2.01 -7.34 1.02 -7 0 C-4.3333581 -1.33332095 -2.83319697 -0.67102033 0 0 Z " fill="#B6B4B5" transform="translate(548,572)"/>
</svg>
